<svg id="Layer_1" data-name="Layer 1" xmlns="http://www.w3.org/2000/svg" viewBox="0 0 503.55 152.05"><defs><style>.cls-1{fill:#521222;}</style></defs><title>logo_darzan</title><path class="cls-1" d="M80.09,269.76v-2.93h2.41q5.45,0,6.71-.85t1.25-3.59V213.07q0-2.7-1.28-3.54t-6.68-.85H80.09v-2.93h36.79a28.82,28.82,0,0,1,21.83,9.55,32.36,32.36,0,0,1,9,23,30.67,30.67,0,0,1-9,22.32,29.41,29.41,0,0,1-21.79,9.18Zm19-6.68q0,2.42.74,3.09t4.17.66h10.17a22.22,22.22,0,0,0,11.1-2.54,22.9,22.9,0,0,0,6.78-5.46q5.55-7,5.55-20.57,0-14.22-5.21-20.89-6.73-8.69-18.32-8.69H104q-3.44,0-4.17.64t-.74,3.11Z" transform="translate(-78.79 -157.78)"/><path class="cls-1" d="M153.72,269.76v-2.93q8.94-.18,11.25-6.28l20.83-56a3.47,3.47,0,0,1,.83-1.51,2.53,2.53,0,0,1,1.57-.37,4.13,4.13,0,0,1,1,.09,1.1,1.1,0,0,1,.61.41,4.31,4.31,0,0,1,.34.5c.07.12.2.41.39.87l21.71,58.54a4.67,4.67,0,0,0,2.41,3q1.62.71,6.19.71h1.77v2.93q-6.34-.28-13.16-.28-10.86,0-14.49.28v-2.93q8.35,0,8.35-2.82a9.94,9.94,0,0,0-.3-1.32l-5.3-14.25H172.83l-4.67,12.2a3.36,3.36,0,0,0-.2,1.41,4.09,4.09,0,0,0,2,3.37,9.5,9.5,0,0,0,5.6,1.41v2.93q-9.68-.28-11.59-.28Q160.65,269.48,153.72,269.76Zm20.19-24.25h22.65L185.21,215Z" transform="translate(-78.79 -157.78)"/><path class="cls-1" d="M362.25,269.76v-2.93q8.94-.18,11.25-6.28l20.83-56a3.47,3.47,0,0,1,.83-1.51,2.53,2.53,0,0,1,1.57-.37,4.13,4.13,0,0,1,1,.09,1.1,1.1,0,0,1,.61.41,4.31,4.31,0,0,1,.34.5c.07.12.2.41.39.87l21.71,58.54a4.67,4.67,0,0,0,2.41,3q1.62.71,6.19.71h1.77v2.93q-6.34-.28-13.16-.28-10.86,0-14.49.28v-2.93q8.35,0,8.35-2.82a9.94,9.94,0,0,0-.3-1.32l-5.3-14.25H381.35l-4.67,12.2a3.36,3.36,0,0,0-.2,1.41,4.09,4.09,0,0,0,2,3.37,9.5,9.5,0,0,0,5.6,1.41v2.93q-9.68-.28-11.59-.28Q369.17,269.48,362.25,269.76Zm20.19-24.25h22.65L393.73,215Z" transform="translate(-78.79 -157.78)"/><path class="cls-1" d="M229.47,269.76v-2.93h2.41q5.45,0,6.71-.85t1.25-3.59V213.07q0-2.7-1.28-3.54t-6.68-.85h-2.41v-2.93h31.58q11,0,18.59,5t7.64,11.87q0,5.26-5,9.38a30.13,30.13,0,0,1-12.62,5.9q10,3.2,12.28,10.84l1.28,7.5q.39,2.7.66,4.07t.71,3.25a12.51,12.51,0,0,0,.91,2.77,14,14,0,0,0,1.15,1.83,3.38,3.38,0,0,0,1.6,1.26,6.42,6.42,0,0,0,2.14.32,6,6,0,0,0,4.27-1.92q2-1.92,2.36-6.4.2-1.51,1.23-1.51,1.28,0,1.28,1.51a11.52,11.52,0,0,1-.39,2.86,15,15,0,0,1-1.35,3.32,7.77,7.77,0,0,1-3,3,9.23,9.23,0,0,1-4.76,1.21q-7.86,0-12.67-3.94a10.11,10.11,0,0,1-2.92-3.89,13.44,13.44,0,0,1-1.06-3.94q-.15-1.74-.15-5.58a35,35,0,0,0-.61-7.82,9.9,9.9,0,0,0-3.22-4.71,13.45,13.45,0,0,0-9.38-3.2H248.48V262.4q0,2.69,1.25,3.56t6.7.87h2.41v2.93q-3.64-.28-14.69-.28T229.47,269.76Zm19-33.08h11.15a28.49,28.49,0,0,0,9-1.21,11,11,0,0,0,5.33-3.41,13.11,13.11,0,0,0,2.36-4.41,18.16,18.16,0,0,0,.64-5,19.11,19.11,0,0,0-.79-5.77,8.36,8.36,0,0,0-2.51-3.93,20.46,20.46,0,0,0-3.44-2.4,12.8,12.8,0,0,0-4.37-1.3q-2.65-.37-4.47-.46t-4.72-.09a52.62,52.62,0,0,0-5.94.18,2.29,2.29,0,0,0-1.57.6,2.19,2.19,0,0,0-.54,1.08,12.5,12.5,0,0,0-.1,1.9Z" transform="translate(-78.79 -157.78)"/><path class="cls-1" d="M433.12,269.76v-2.93a22.07,22.07,0,0,0,5.94-.66,5.41,5.41,0,0,0,3.14-1.92,7.51,7.51,0,0,0,1.06-2.1,9.26,9.26,0,0,0,.22-2.26V211q0-1.32-.37-1.65a4.75,4.75,0,0,0-2.09-.5q-3-.18-5-.18h-2.9v-2.93h17.09a5.45,5.45,0,0,1,1.82.18,3.81,3.81,0,0,1,1.08,1.05l35.51,48.6v-40a10.11,10.11,0,0,0-.2-2.24,7.08,7.08,0,0,0-1.06-2.1,5.37,5.37,0,0,0-3.17-1.92,22.85,22.85,0,0,0-5.94-.64v-2.93q10.56.27,11.76.27t11.76-.27v2.93a22.84,22.84,0,0,0-5.94.64,5.25,5.25,0,0,0-3.14,1.92,7.81,7.81,0,0,0-1.06,2.12,9.11,9.11,0,0,0-.22,2.22V267.3a6.31,6.31,0,0,1-.2,2q-.2.46-1.18.46-.69,0-1.72-1.25l-41.07-56.17a9.53,9.53,0,0,0-1-1.14v48.69a10.33,10.33,0,0,0,.2,2.26,6.65,6.65,0,0,0,1.06,2.1,5.52,5.52,0,0,0,3.17,1.92,22.07,22.07,0,0,0,5.94.66v2.93q-10.56-.28-11.76-.28T433.12,269.76Z" transform="translate(-78.79 -157.78)"/><path class="cls-1" d="M369.24,184.21a3.48,3.48,0,0,0-4.81,1l-67,102.54,72.71-98.57.11-.16A3.48,3.48,0,0,0,369.24,184.21ZM367,189.12l-5.81,8.37a.87.87,0,0,1-1.43-1l5.81-8.37a.87.87,0,1,1,1.43,1Z" transform="translate(-78.79 -157.78)"/><path class="cls-1" d="M308,205.75l-1.11,21.09h2.51a36.33,36.33,0,0,1,1.13-7.34,16.17,16.17,0,0,1,3-5.63,12.18,12.18,0,0,1,6.1-3.93,33.86,33.86,0,0,1,10-1.26h11.77l2-2.93Z" transform="translate(-78.79 -157.78)"/><path class="cls-1" d="M353,252.08a25.84,25.84,0,0,1-1.77,5.92,11.29,11.29,0,0,1-3.52,4.74,18.19,18.19,0,0,1-6,2.74,34.58,34.58,0,0,1-9.27,1.07H319.21l-2.24,3.2h37.6l1.72-25h-2.5Q353.5,249.22,353,252.08Z" transform="translate(-78.79 -157.78)"/><path class="cls-1" d="M565.21,259.09l-.76-.56c9.77-13.23,15.74-27.83,16.79-41.1s-2.87-24-11-30.32a37.09,37.09,0,0,0-22.53-7.55,24,24,0,0,1,2.8,6A21.67,21.67,0,0,1,541,209.88,16,16,0,0,1,528.85,212a12.28,12.28,0,0,1-9-9.22,17,17,0,0,1,4.67-16.08c5-4.72,12.91-7.68,21.42-8a39.24,39.24,0,0,0-5.13-5.69,53.13,53.13,0,0,0-48.67-12.78c-12.37,3-23.93,8.71-35.12,14.23-6.91,3.42-14.06,6.95-21.35,9.81-25.1,9.87-49,13-70.93,9.33-5.11-.86-15-3-23.84-8s-14-11.2-15.9-18.67l.91-.23c1.81,7.21,7,13.29,15.45,18.08,8.7,4.93,18.48,7.09,23.53,7.94,21.8,3.65,45.5.53,70.43-9.28,7.24-2.85,14.38-6.37,21.27-9.78,11.23-5.55,22.84-11.29,35.31-14.3a54.06,54.06,0,0,1,49.53,13,39.24,39.24,0,0,1,5.63,6.35h.39a38,38,0,0,1,23.33,7.73c8.43,6.53,12.48,17.59,11.41,31.14S575.08,245.72,565.21,259.09Zm-18.66-79.52c-8.5.19-16.43,3.09-21.4,7.78a16,16,0,0,0-4.4,15.17,11.37,11.37,0,0,0,8.35,8.54,15.1,15.1,0,0,0,11.42-2,21,21,0,0,0,9-23.26A23.35,23.35,0,0,0,546.55,179.57Z" transform="translate(-78.79 -157.78)"/><path class="cls-1" d="M83.74,304.71l-4.95-7.55h2.6l3.47,5.5,3.52-5.5h2.51l-4.95,7.49v5H83.74Z" transform="translate(-78.79 -157.78)"/><path class="cls-1" d="M102.31,309.83a6.69,6.69,0,0,1-2.63-.51,6.19,6.19,0,0,1-3.38-3.42,6.43,6.43,0,0,1-.48-2.48v0a6.45,6.45,0,0,1,.48-2.48,6.3,6.3,0,0,1,1.35-2,6.48,6.48,0,0,1,2.06-1.4,7,7,0,0,1,5.27,0,6.17,6.17,0,0,1,3.38,3.41,6.44,6.44,0,0,1,.48,2.48v0a6.45,6.45,0,0,1-.48,2.48,6.3,6.3,0,0,1-1.35,2,6.48,6.48,0,0,1-2.06,1.4A6.57,6.57,0,0,1,102.31,309.83Zm0-2a4.11,4.11,0,0,0,1.7-.35,4.17,4.17,0,0,0,1.33-.94,4.3,4.3,0,0,0,.86-1.39,4.71,4.71,0,0,0,.31-1.71v0a4.76,4.76,0,0,0-.31-1.72,4.28,4.28,0,0,0-.87-1.41,4.17,4.17,0,0,0-1.34-1,4.14,4.14,0,0,0-4.73.93,4.42,4.42,0,0,0-.86,1.4,4.71,4.71,0,0,0-.31,1.71v0a4.69,4.69,0,0,0,.31,1.71,4.41,4.41,0,0,0,.87,1.41,4.08,4.08,0,0,0,1.34,1A4.18,4.18,0,0,0,102.35,307.8Z" transform="translate(-78.79 -157.78)"/><path class="cls-1" d="M121.23,309.81a6.44,6.44,0,0,1-2.19-.35,4.41,4.41,0,0,1-1.67-1,4.64,4.64,0,0,1-1.07-1.72,6.94,6.94,0,0,1-.37-2.37v-7.17h2.19v7.08a3.74,3.74,0,0,0,.84,2.64,3,3,0,0,0,2.31.9,3.05,3.05,0,0,0,2.3-.86,3.59,3.59,0,0,0,.84-2.59v-7.17h2.19v7.06a7.11,7.11,0,0,1-.38,2.44,4.79,4.79,0,0,1-1.08,1.75,4.4,4.4,0,0,1-1.68,1A6.57,6.57,0,0,1,121.23,309.81Z" transform="translate(-78.79 -157.78)"/><path class="cls-1" d="M134.22,297.16h5.55a6.05,6.05,0,0,1,2.08.33,4.16,4.16,0,0,1,1.51.92,3.58,3.58,0,0,1,.77,1.19,4,4,0,0,1,.27,1.49v0a3.58,3.58,0,0,1-.83,2.46,4.37,4.37,0,0,1-2.13,1.31l3.36,4.72h-2.6l-3.06-4.34h-2.74v4.34h-2.19Zm5.39,6.17a2.89,2.89,0,0,0,1.87-.56,1.85,1.85,0,0,0,.69-1.52v0a1.83,1.83,0,0,0-.68-1.54,3,3,0,0,0-1.9-.52h-3.19v4.18Z" transform="translate(-78.79 -157.78)"/><path class="cls-1" d="M161.67,297.16h2l6.67,8.61v-8.61h2.15v12.46h-1.83l-6.87-8.86v8.86h-2.15Z" transform="translate(-78.79 -157.78)"/><path class="cls-1" d="M180.36,297.16h9.23v2h-7v3.24h6.24v2h-6.24v3.35h7.13v2h-9.32Z" transform="translate(-78.79 -157.78)"/><path class="cls-1" d="M197,297.16h2.19v12.46H197Z" transform="translate(-78.79 -157.78)"/><path class="cls-1" d="M213.08,309.83a6.92,6.92,0,0,1-2.65-.49,5.94,5.94,0,0,1-3.34-3.38,6.84,6.84,0,0,1-.46-2.53v0a6.55,6.55,0,0,1,.47-2.47,6.23,6.23,0,0,1,3.36-3.45,6.42,6.42,0,0,1,2.59-.52,9,9,0,0,1,1.49.12,7.22,7.22,0,0,1,1.24.33,6.54,6.54,0,0,1,1.08.52,8.33,8.33,0,0,1,1,.71l-1.39,1.65a7.58,7.58,0,0,0-.73-.55,4.39,4.39,0,0,0-.78-.42,4.8,4.8,0,0,0-.9-.27,5.29,5.29,0,0,0-1.08-.1,3.62,3.62,0,0,0-1.59.36,4.11,4.11,0,0,0-1.28,1,4.47,4.47,0,0,0-.85,1.4,4.66,4.66,0,0,0-.31,1.7v0a5.11,5.11,0,0,0,.3,1.78,4.07,4.07,0,0,0,.86,1.41,4.13,4.13,0,0,0,1.34.93,4.3,4.3,0,0,0,1.73.34,5.19,5.19,0,0,0,1.66-.26,4.63,4.63,0,0,0,1.34-.68v-2.33H213v-1.91h5.3v5.23a9.18,9.18,0,0,1-1,.75,7.57,7.57,0,0,1-1.21.62,7.34,7.34,0,0,1-1.4.42A7.81,7.81,0,0,1,213.08,309.83Z" transform="translate(-78.79 -157.78)"/><path class="cls-1" d="M225.75,297.16h2.19v5.18h5.94v-5.18h2.19v12.46h-2.19v-5.25h-5.94v5.25h-2.19Z" transform="translate(-78.79 -157.78)"/><path class="cls-1" d="M243.89,297.16h5.59a4.41,4.41,0,0,1,3.25,1.1,2.8,2.8,0,0,1,.84,2.06v0a3.08,3.08,0,0,1-.15,1,3,3,0,0,1-.39.76,2.82,2.82,0,0,1-.57.58,4.8,4.8,0,0,1-.67.43,6.37,6.37,0,0,1,1,.45,3.29,3.29,0,0,1,.78.61,2.51,2.51,0,0,1,.51.84,3.21,3.21,0,0,1,.18,1.12v0a3.19,3.19,0,0,1-.33,1.48,2.89,2.89,0,0,1-.93,1.07,4.45,4.45,0,0,1-1.46.65,7.58,7.58,0,0,1-1.89.22h-5.76Zm7.49,3.52a1.37,1.37,0,0,0-.56-1.17,2.69,2.69,0,0,0-1.63-.42H246v3.31h3a3.08,3.08,0,0,0,1.71-.42,1.41,1.41,0,0,0,.64-1.27Zm.69,5.25a1.42,1.42,0,0,0-.63-1.24,3.42,3.42,0,0,0-1.93-.43H246v3.41h3.63a3.14,3.14,0,0,0,1.76-.43,1.43,1.43,0,0,0,.64-1.28Z" transform="translate(-78.79 -157.78)"/><path class="cls-1" d="M267.31,309.83a6.69,6.69,0,0,1-2.63-.51,6.19,6.19,0,0,1-3.38-3.42,6.43,6.43,0,0,1-.48-2.48v0a6.45,6.45,0,0,1,.48-2.48,6.3,6.3,0,0,1,1.35-2,6.48,6.48,0,0,1,2.06-1.4,7,7,0,0,1,5.27,0,6.17,6.17,0,0,1,3.38,3.41,6.44,6.44,0,0,1,.48,2.48v0a6.45,6.45,0,0,1-.48,2.48,6.3,6.3,0,0,1-1.35,2,6.48,6.48,0,0,1-2.06,1.4A6.57,6.57,0,0,1,267.31,309.83Zm0-2a4.11,4.11,0,0,0,1.7-.35,4.17,4.17,0,0,0,1.33-.94,4.3,4.3,0,0,0,.86-1.39,4.71,4.71,0,0,0,.31-1.71v0a4.76,4.76,0,0,0-.31-1.72,4.28,4.28,0,0,0-.87-1.41,4.17,4.17,0,0,0-1.34-1,4.14,4.14,0,0,0-4.73.93,4.42,4.42,0,0,0-.86,1.4,4.71,4.71,0,0,0-.31,1.71v0a4.69,4.69,0,0,0,.31,1.71,4.41,4.41,0,0,0,.87,1.41,4.08,4.08,0,0,0,1.34,1A4.18,4.18,0,0,0,267.35,307.8Z" transform="translate(-78.79 -157.78)"/><path class="cls-1" d="M286.22,309.81a6.44,6.44,0,0,1-2.19-.35,4.41,4.41,0,0,1-1.67-1,4.64,4.64,0,0,1-1.07-1.72,6.94,6.94,0,0,1-.37-2.37v-7.17h2.19v7.08a3.74,3.74,0,0,0,.84,2.64,3,3,0,0,0,2.31.9,3.05,3.05,0,0,0,2.3-.86,3.59,3.59,0,0,0,.84-2.59v-7.17h2.19v7.06a7.11,7.11,0,0,1-.38,2.44,4.79,4.79,0,0,1-1.08,1.75,4.4,4.4,0,0,1-1.68,1A6.57,6.57,0,0,1,286.22,309.81Z" transform="translate(-78.79 -157.78)"/><path class="cls-1" d="M299.21,297.16h5.55a6.05,6.05,0,0,1,2.08.33,4.16,4.16,0,0,1,1.51.92,3.58,3.58,0,0,1,.77,1.19,4,4,0,0,1,.27,1.49v0a3.58,3.58,0,0,1-.83,2.46,4.37,4.37,0,0,1-2.13,1.31l3.36,4.72h-2.6l-3.06-4.34H301.4v4.34h-2.19Zm5.39,6.17a2.89,2.89,0,0,0,1.87-.56,1.85,1.85,0,0,0,.69-1.52v0a1.83,1.83,0,0,0-.68-1.54,3,3,0,0,0-1.9-.52H301.4v4.18Z" transform="translate(-78.79 -157.78)"/><path class="cls-1" d="M316.7,297.16h2.19v5.18h5.94v-5.18H327v12.46h-2.19v-5.25h-5.94v5.25H316.7Z" transform="translate(-78.79 -157.78)"/><path class="cls-1" d="M340.79,309.83a6.69,6.69,0,0,1-2.63-.51,6.19,6.19,0,0,1-3.38-3.42,6.43,6.43,0,0,1-.48-2.48v0a6.45,6.45,0,0,1,.48-2.48,6.3,6.3,0,0,1,1.35-2,6.48,6.48,0,0,1,2.06-1.4,7,7,0,0,1,5.27,0,6.17,6.17,0,0,1,3.38,3.41,6.44,6.44,0,0,1,.48,2.48v0a6.45,6.45,0,0,1-.48,2.48,6.3,6.3,0,0,1-1.35,2,6.48,6.48,0,0,1-2.06,1.4A6.57,6.57,0,0,1,340.79,309.83Zm0-2a4.11,4.11,0,0,0,1.7-.35,4.17,4.17,0,0,0,1.33-.94,4.3,4.3,0,0,0,.86-1.39,4.71,4.71,0,0,0,.31-1.71v0a4.76,4.76,0,0,0-.31-1.72,4.28,4.28,0,0,0-.87-1.41,4.17,4.17,0,0,0-1.34-1,4.14,4.14,0,0,0-4.73.93,4.42,4.42,0,0,0-.86,1.4,4.71,4.71,0,0,0-.31,1.71v0a4.69,4.69,0,0,0,.31,1.71,4.41,4.41,0,0,0,.87,1.41,4.08,4.08,0,0,0,1.34,1A4.18,4.18,0,0,0,340.83,307.8Z" transform="translate(-78.79 -157.78)"/><path class="cls-1" d="M360.54,309.83a6.69,6.69,0,0,1-2.63-.51,6.19,6.19,0,0,1-3.38-3.42,6.43,6.43,0,0,1-.48-2.48v0a6.45,6.45,0,0,1,.48-2.48,6.3,6.3,0,0,1,1.35-2,6.48,6.48,0,0,1,2.06-1.4,7,7,0,0,1,5.27,0,6.17,6.17,0,0,1,3.38,3.41,6.44,6.44,0,0,1,.48,2.48v0a6.45,6.45,0,0,1-.48,2.48,6.3,6.3,0,0,1-1.35,2,6.48,6.48,0,0,1-2.06,1.4A6.57,6.57,0,0,1,360.54,309.83Zm0-2a4.11,4.11,0,0,0,1.7-.35,4.17,4.17,0,0,0,1.33-.94,4.3,4.3,0,0,0,.86-1.39,4.71,4.71,0,0,0,.31-1.71v0a4.76,4.76,0,0,0-.31-1.72,4.28,4.28,0,0,0-.87-1.41,4.17,4.17,0,0,0-1.34-1,4.14,4.14,0,0,0-4.73.93,4.42,4.42,0,0,0-.86,1.4,4.71,4.71,0,0,0-.31,1.71v0a4.69,4.69,0,0,0,.31,1.71,4.41,4.41,0,0,0,.87,1.41,4.08,4.08,0,0,0,1.34,1A4.18,4.18,0,0,0,360.58,307.8Z" transform="translate(-78.79 -157.78)"/><path class="cls-1" d="M374.35,297.16H379a7.34,7.34,0,0,1,2.68.47,6.31,6.31,0,0,1,2.1,1.31,5.86,5.86,0,0,1,1.36,2,6.21,6.21,0,0,1,.48,2.45v0a6.28,6.28,0,0,1-.48,2.46,5.83,5.83,0,0,1-1.36,2,6.5,6.5,0,0,1-2.1,1.32,7.27,7.27,0,0,1-2.68.48h-4.64Zm2.19,2v8.47H379a4.88,4.88,0,0,0,1.78-.31,3.89,3.89,0,0,0,1.36-.87,3.94,3.94,0,0,0,.87-1.34,4.44,4.44,0,0,0,.31-1.68v0a4.52,4.52,0,0,0-.31-1.69,3.92,3.92,0,0,0-.87-1.35,4,4,0,0,0-1.36-.88,4.75,4.75,0,0,0-1.78-.32Z" transform="translate(-78.79 -157.78)"/><path class="cls-1" d="M405.92,299.19H402v-2h10.11v2h-3.95v10.43h-2.21Z" transform="translate(-78.79 -157.78)"/><path class="cls-1" d="M423.42,297.07h2l5.48,12.54h-2.31l-1.26-3h-5.89l-1.28,3h-2.24Zm3.13,7.6-2.15-5-2.14,5Z" transform="translate(-78.79 -157.78)"/><path class="cls-1" d="M437.82,297.16H440v12.46h-2.19Z" transform="translate(-78.79 -157.78)"/><path class="cls-1" d="M448,297.16h2.19v10.46h6.55v2H448Z" transform="translate(-78.79 -157.78)"/><path class="cls-1" d="M468.83,309.83a6.69,6.69,0,0,1-2.63-.51,6.19,6.19,0,0,1-3.38-3.42,6.43,6.43,0,0,1-.48-2.48v0a6.45,6.45,0,0,1,.48-2.48,6.3,6.3,0,0,1,1.35-2,6.48,6.48,0,0,1,2.06-1.4,7,7,0,0,1,5.27,0,6.17,6.17,0,0,1,3.38,3.41,6.44,6.44,0,0,1,.48,2.48v0a6.45,6.45,0,0,1-.48,2.48,6.3,6.3,0,0,1-1.35,2,6.48,6.48,0,0,1-2.06,1.4A6.57,6.57,0,0,1,468.83,309.83Zm0-2a4.11,4.11,0,0,0,1.7-.35,4.17,4.17,0,0,0,1.33-.94,4.3,4.3,0,0,0,.86-1.39,4.71,4.71,0,0,0,.31-1.71v0a4.76,4.76,0,0,0-.31-1.72,4.28,4.28,0,0,0-.87-1.41,4.17,4.17,0,0,0-1.34-1,4.14,4.14,0,0,0-4.73.93,4.42,4.42,0,0,0-.86,1.4,4.71,4.71,0,0,0-.31,1.71v0a4.69,4.69,0,0,0,.31,1.71,4.41,4.41,0,0,0,.87,1.41,4.08,4.08,0,0,0,1.34,1A4.18,4.18,0,0,0,468.87,307.8Z" transform="translate(-78.79 -157.78)"/><path class="cls-1" d="M482.64,297.16h5.55a6.05,6.05,0,0,1,2.08.33,4.16,4.16,0,0,1,1.51.92,3.58,3.58,0,0,1,.77,1.19,4,4,0,0,1,.27,1.49v0a3.58,3.58,0,0,1-.83,2.46,4.37,4.37,0,0,1-2.13,1.31l3.36,4.72h-2.6l-3.06-4.34h-2.74v4.34h-2.19Zm5.39,6.17a2.89,2.89,0,0,0,1.87-.56,1.85,1.85,0,0,0,.69-1.52v0a1.83,1.83,0,0,0-.68-1.54,3,3,0,0,0-1.9-.52h-3.19v4.18Z" transform="translate(-78.79 -157.78)"/></svg>