<?xml version="1.0" encoding="utf-8"?>
<!-- Generator: Adobe Illustrator 21.1.0, SVG Export Plug-In . SVG Version: 6.00 Build 0)  -->
<svg version="1.1" id="Layer_1" xmlns="http://www.w3.org/2000/svg" xmlns:xlink="http://www.w3.org/1999/xlink" x="0px" y="0px"
	 viewBox="0 0 640 200" style="enable-background:new 0 0 640 200;" xml:space="preserve">
<style type="text/css">
	.st0{fill:#FFFDF0;}
</style>
<g>
	<g>
		<g>
			<g>
				<path class="st0" d="M2.6,145.1v-3.7h3c4.6,0,7.4-0.4,8.5-1.1c1.1-0.7,1.6-2.2,1.6-4.5V73.2c0-2.3-0.5-3.8-1.6-4.5
					c-1.1-0.7-3.9-1.1-8.5-1.1h-3V64h46.6c10.9,0,20.1,4,27.7,12.1c7.6,8.1,11.4,17.8,11.4,29.1c0,11.1-3.8,20.5-11.4,28.3
					c-7.6,7.8-16.8,11.6-27.6,11.6H2.6z M26.7,136.6c0,2,0.3,3.3,0.9,3.9c0.6,0.6,2.4,0.8,5.3,0.8h12.9c5.6,0,10.3-1.1,14.1-3.2
					c3.8-2.1,6.6-4.4,8.6-6.9c4.7-5.9,7-14.6,7-26.1c0-12-2.2-20.8-6.6-26.5c-5.7-7.3-13.4-11-23.2-11H32.9c-2.9,0-4.7,0.3-5.3,0.8
					c-0.6,0.5-0.9,1.9-0.9,3.9V136.6z"/>
			</g>
			<g>
				<path class="st0" d="M95.9,145.1v-3.7c7.6-0.2,12.3-2.8,14.3-8l26.4-70.9c0.3-1,0.7-1.6,1.1-1.9c0.4-0.3,1-0.5,2-0.5
					c0.5,0,0.9,0,1.2,0.1c0.3,0.1,0.6,0.3,0.8,0.5c0.2,0.3,0.4,0.5,0.4,0.6c0.1,0.2,0.2,0.5,0.5,1.1l27.5,74.2c0.7,2,1.7,3.2,3,3.8
					c1.4,0.6,4,0.9,7.8,0.9h2.2v3.7c-5.4-0.2-10.9-0.4-16.7-0.4c-9.2,0-15.3,0.1-18.4,0.4v-3.7c7.1,0,10.6-1.2,10.6-3.6
					c0-0.2-0.1-0.7-0.4-1.7l-6.7-18.1h-31.5l-5.9,15.5c-0.2,0.3-0.2,0.9-0.2,1.8c0,1.7,0.8,3.1,2.5,4.3c1.7,1.2,4,1.8,7.1,1.8v3.7
					c-8.2-0.2-13.1-0.4-14.7-0.4C106.1,144.7,101.8,144.8,95.9,145.1z M121.5,114.3h28.7l-14.4-38.6L121.5,114.3z"/>
			</g>
			<g>
				<path class="st0" d="M360.1,145.1v-3.7c7.6-0.2,12.3-2.8,14.3-8l26.4-70.9c0.3-1,0.7-1.6,1.1-1.9c0.4-0.3,1-0.5,2-0.5
					c0.5,0,0.9,0,1.2,0.1c0.3,0.1,0.6,0.3,0.8,0.5c0.2,0.3,0.4,0.5,0.4,0.6c0.1,0.2,0.2,0.5,0.5,1.1l27.5,74.2c0.7,2,1.7,3.2,3,3.8
					c1.4,0.6,4,0.9,7.8,0.9h2.2v3.7c-5.4-0.2-10.9-0.4-16.7-0.4c-9.2,0-15.3,0.1-18.4,0.4v-3.7c7.1,0,10.6-1.2,10.6-3.6
					c0-0.2-0.1-0.7-0.4-1.7l-6.7-18.1h-31.5l-5.9,15.5c-0.2,0.3-0.2,0.9-0.2,1.8c0,1.7,0.8,3.1,2.5,4.3c1.7,1.2,4,1.8,7.1,1.8v3.7
					c-8.2-0.2-13.1-0.4-14.7-0.4C370.3,144.7,366,144.8,360.1,145.1z M385.7,114.3h28.7L400,75.7L385.7,114.3z"/>
			</g>
			<g>
				<path class="st0" d="M191.9,145.1v-3.7h3c4.6,0,7.4-0.4,8.5-1.1c1.1-0.7,1.6-2.2,1.6-4.5V73.2c0-2.3-0.5-3.8-1.6-4.5
					c-1.1-0.7-3.9-1.1-8.5-1.1h-3V64h40c9.3,0,17.1,2.1,23.6,6.3c6.5,4.2,9.7,9.2,9.7,15c0,4.4-2.1,8.4-6.3,11.9
					c-4.2,3.5-9.5,6-16,7.5c8.4,2.7,13.6,7.3,15.6,13.7l1.6,9.5c0.3,2.3,0.6,4,0.8,5.2c0.2,1.2,0.5,2.5,0.9,4.1
					c0.4,1.6,0.8,2.8,1.2,3.5c0.4,0.8,0.9,1.5,1.5,2.3c0.6,0.8,1.3,1.3,2,1.6c0.8,0.3,1.7,0.4,2.7,0.4c1.9,0,3.8-0.8,5.4-2.4
					c1.7-1.6,2.7-4.3,3-8.1c0.2-1.3,0.7-1.9,1.6-1.9c1.1,0,1.6,0.6,1.6,1.9c0,1.1-0.2,2.3-0.5,3.6c-0.3,1.3-0.9,2.7-1.7,4.2
					c-0.8,1.5-2.1,2.8-3.8,3.8c-1.7,1-3.8,1.5-6,1.5c-6.6,0-12-1.7-16.1-5c-1.7-1.4-2.9-3.1-3.7-4.9c-0.8-1.9-1.2-3.5-1.3-5
					c-0.1-1.5-0.2-3.8-0.2-7.1c0-4.6-0.3-7.9-0.8-9.9c-0.5-2-1.9-4-4.1-6c-3-2.7-6.9-4.1-11.9-4.1H216v30c0,2.3,0.5,3.8,1.6,4.5
					c1.1,0.7,3.9,1.1,8.5,1.1h3.1v3.7c-3.1-0.2-9.3-0.4-18.6-0.4C201.2,144.7,195,144.8,191.9,145.1z M216,103.2h14.1
					c4.5,0,8.3-0.5,11.4-1.5s5.3-2.5,6.8-4.3c1.5-1.9,2.4-3.7,3-5.6c0.5-1.9,0.8-4,0.8-6.3c0-2.8-0.3-5.2-1-7.3
					c-0.7-2.1-1.7-3.7-3.2-5c-1.5-1.2-2.9-2.3-4.4-3c-1.5-0.8-3.3-1.3-5.5-1.7c-2.2-0.3-4.1-0.5-5.7-0.6c-1.5-0.1-3.5-0.1-6-0.1
					c-4.1,0-6.7,0.1-7.5,0.2c-1,0.1-1.6,0.3-2,0.8c-0.4,0.4-0.6,0.9-0.7,1.4c-0.1,0.5-0.1,1.3-0.1,2.4V103.2z"/>
			</g>
			<g>
				<path class="st0" d="M449.9,145.1v-3.7c3.1,0,5.6-0.3,7.5-0.8c1.9-0.6,3.3-1.4,4-2.4c0.7-1.1,1.2-1.9,1.3-2.7
					c0.2-0.7,0.3-1.7,0.3-2.9V70.6c0-1.1-0.2-1.8-0.5-2.1c-0.3-0.3-1.2-0.5-2.6-0.6c-2.5-0.2-4.6-0.2-6.3-0.2h-3.7V64h21.7
					c1.2,0,2,0.1,2.3,0.2c0.3,0.2,0.8,0.6,1.4,1.3l45,61.6V76.4c0-1.2-0.1-2.1-0.2-2.8c-0.2-0.7-0.6-1.6-1.3-2.7
					c-0.7-1.1-2.1-1.9-4-2.4c-2-0.5-4.5-0.8-7.5-0.8V64c8.9,0.2,13.9,0.3,14.9,0.3c1,0,6-0.1,14.9-0.3v3.7c-3.1,0-5.6,0.3-7.5,0.8
					c-2,0.5-3.3,1.4-4,2.4c-0.7,1.1-1.2,2-1.3,2.7c-0.2,0.7-0.3,1.7-0.3,2.8v65.5c0,1.3-0.1,2.1-0.2,2.5c-0.2,0.4-0.7,0.6-1.5,0.6
					c-0.6,0-1.3-0.5-2.2-1.6l-52-71.2c-0.3-0.5-0.7-0.9-1.2-1.4v61.7c0,1.2,0.1,2.2,0.2,2.9c0.2,0.7,0.6,1.6,1.3,2.7
					c0.7,1.1,2.1,1.9,4,2.4c1.9,0.6,4.5,0.8,7.5,0.8v3.7c-8.9-0.2-13.9-0.4-14.9-0.4C463.8,144.7,458.9,144.8,449.9,145.1z"/>
			</g>
			<g>
				<path class="st0" d="M369,36.7c-2-1.3-4.8-0.8-6.1,1.3L278,167.9L370.1,43c0-0.1,0.1-0.1,0.1-0.2C371.6,40.7,371,38,369,36.7z
					 M366.2,42.9l-7.4,10.6c-0.2,0.3-0.6,0.5-0.9,0.5c-0.2,0-0.4-0.1-0.6-0.2c-0.5-0.3-0.6-1-0.3-1.5l7.4-10.6
					c0.3-0.5,1-0.6,1.5-0.3C366.4,41.7,366.5,42.4,366.2,42.9z"/>
			</g>
			<g>
				<g>
					<path class="st0" d="M291.4,64L290,90.7h3.2c0.2-3.7,0.7-6.8,1.4-9.3c0.7-2.5,2-4.9,3.7-7.1c1.8-2.3,4.4-3.9,7.7-5
						c3.4-1.1,7.6-1.6,12.7-1.6h14.9c1-1.4,1.8-2.7,2.5-3.7H291.4z"/>
				</g>
				<g>
					<path class="st0" d="M348.5,122.7c-0.4,2.4-1.1,4.9-2.2,7.5c-1.1,2.6-2.6,4.6-4.5,6c-1.9,1.4-4.4,2.6-7.6,3.5
						c-3.2,0.9-7.1,1.4-11.7,1.4h-16.8l-2.8,4.1h47.6l2.2-31.7h-3.2C349.2,117.1,348.9,120.2,348.5,122.7z"/>
				</g>
			</g>
			<path class="st0" d="M617.3,131.5l-1-0.7c12.4-16.8,19.9-35.3,21.3-52.1c1.3-16.7-3.6-30.4-14-38.4c-8.5-6.6-18.8-9.5-28.5-9.6
				c1.6,2.5,2.8,5,3.5,7.6c3.5,11.5-1.7,24.7-12,30.8c-5,3-10.6,3.9-15.4,2.6c-5.9-1.6-9.9-5.7-11.4-11.7
				c-1.8-7.1,0.6-15.3,5.9-20.4c6.3-6,16.4-9.7,27.1-10.1c-1.7-2.4-3.9-4.8-6.5-7.2C569.7,7,546.6,0.9,524.7,6.3
				c-15.7,3.8-30.3,11-44.5,18c-8.8,4.3-17.8,8.8-27,12.4c-31.8,12.5-62,16.5-89.9,11.8c-6.5-1.1-19-3.9-30.2-10.2
				c-11-6.2-17.8-14.2-20.1-23.7l1.2-0.3c2.3,9.1,8.9,16.8,19.6,22.9c11,6.2,23.4,9,29.8,10.1c27.6,4.6,57.6,0.7,89.2-11.8
				c9.2-3.6,18.2-8.1,27-12.4c14.2-7,28.9-14.3,44.7-18.1c22.3-5.4,45.8,0.8,62.8,16.5c2.9,2.7,5.3,5.3,7.1,8c0.2,0,0.3,0,0.5,0
				c10.1,0,20.7,3,29.6,9.8c10.7,8.3,15.8,22.3,14.5,39.4C637.4,95.9,629.8,114.6,617.3,131.5z M593.6,30.8
				c-10.8,0.2-20.8,3.9-27.1,9.9c-5,4.8-7.3,12.5-5.6,19.2c1.4,5.5,5.2,9.4,10.6,10.8c4.5,1.2,9.8,0.3,14.5-2.5
				c9.7-5.7,14.7-18.7,11.5-29.5C596.7,36,595.4,33.4,593.6,30.8z"/>
		</g>
	</g>
	<g>
		<path class="st0" d="M7.3,189.3L1,179.8h3.3l4.4,7l4.5-7h3.2l-6.3,9.5v6.3H7.3V189.3z"/>
		<path class="st0" d="M30.8,195.8c-1.2,0-2.3-0.2-3.3-0.6c-1-0.4-1.9-1-2.6-1.7c-0.7-0.7-1.3-1.6-1.7-2.6c-0.4-1-0.6-2-0.6-3.1v0
			c0-1.1,0.2-2.2,0.6-3.1c0.4-1,1-1.8,1.7-2.6c0.7-0.7,1.6-1.3,2.6-1.8c1-0.4,2.1-0.7,3.3-0.7c1.2,0,2.3,0.2,3.3,0.6
			c1,0.4,1.9,1,2.6,1.7c0.7,0.7,1.3,1.6,1.7,2.6c0.4,1,0.6,2,0.6,3.1v0c0,1.1-0.2,2.2-0.6,3.1c-0.4,1-1,1.8-1.7,2.6
			s-1.6,1.3-2.6,1.8C33.1,195.6,32,195.8,30.8,195.8z M30.8,193.3c0.8,0,1.5-0.1,2.2-0.4c0.7-0.3,1.2-0.7,1.7-1.2
			c0.5-0.5,0.8-1.1,1.1-1.8c0.3-0.7,0.4-1.4,0.4-2.2v0c0-0.8-0.1-1.5-0.4-2.2c-0.3-0.7-0.6-1.3-1.1-1.8c-0.5-0.5-1-0.9-1.7-1.2
			c-0.7-0.3-1.4-0.5-2.2-0.5c-0.8,0-1.5,0.1-2.2,0.4c-0.7,0.3-1.2,0.7-1.7,1.2c-0.5,0.5-0.8,1.1-1.1,1.8c-0.3,0.7-0.4,1.4-0.4,2.2v0
			c0,0.8,0.1,1.5,0.4,2.2c0.3,0.7,0.6,1.3,1.1,1.8c0.5,0.5,1,0.9,1.7,1.2C29.3,193.1,30.1,193.3,30.8,193.3z"/>
		<path class="st0" d="M54.8,195.8c-1,0-1.9-0.1-2.8-0.4c-0.8-0.3-1.5-0.7-2.1-1.3c-0.6-0.6-1-1.3-1.4-2.2c-0.3-0.9-0.5-1.9-0.5-3
			v-9.1h2.8v9c0,1.5,0.4,2.6,1.1,3.3c0.7,0.8,1.7,1.1,2.9,1.1c1.2,0,2.2-0.4,2.9-1.1c0.7-0.7,1.1-1.8,1.1-3.3v-9.1h2.8v8.9
			c0,1.2-0.2,2.2-0.5,3.1c-0.3,0.9-0.8,1.6-1.4,2.2c-0.6,0.6-1.3,1-2.1,1.3C56.7,195.7,55.8,195.8,54.8,195.8z"/>
		<path class="st0" d="M71.2,179.8h7c1,0,1.9,0.1,2.6,0.4c0.8,0.3,1.4,0.7,1.9,1.2c0.4,0.4,0.7,0.9,1,1.5c0.2,0.6,0.3,1.2,0.3,1.9v0
			c0,1.3-0.4,2.3-1,3.1c-0.7,0.8-1.6,1.3-2.7,1.7l4.3,6h-3.3l-3.9-5.5H74v5.5h-2.8V179.8z M78.1,187.6c1,0,1.8-0.2,2.4-0.7
			c0.6-0.5,0.9-1.1,0.9-1.9v0c0-0.9-0.3-1.5-0.9-2c-0.6-0.4-1.4-0.7-2.4-0.7h-4v5.3H78.1z"/>
		<path class="st0" d="M106,179.8h2.6l8.5,10.9v-10.9h2.7v15.8h-2.3l-8.7-11.2v11.2H106V179.8z"/>
		<path class="st0" d="M129.7,179.8h11.7v2.5h-8.9v4.1h7.9v2.5h-7.9v4.2h9v2.5h-11.8V179.8z"/>
		<path class="st0" d="M150.8,179.8h2.8v15.8h-2.8V179.8z"/>
		<path class="st0" d="M171.1,195.8c-1.2,0-2.4-0.2-3.4-0.6c-1-0.4-1.9-1-2.6-1.7c-0.7-0.7-1.3-1.6-1.7-2.6c-0.4-1-0.6-2.1-0.6-3.2
			v0c0-1.1,0.2-2.1,0.6-3.1c0.4-1,1-1.9,1.7-2.6s1.6-1.3,2.6-1.8c1-0.4,2.1-0.7,3.3-0.7c0.7,0,1.3,0.1,1.9,0.1
			c0.6,0.1,1.1,0.2,1.6,0.4c0.5,0.2,0.9,0.4,1.4,0.7c0.4,0.3,0.8,0.6,1.3,0.9l-1.8,2.1c-0.3-0.3-0.6-0.5-0.9-0.7
			c-0.3-0.2-0.6-0.4-1-0.5c-0.3-0.1-0.7-0.3-1.1-0.3c-0.4-0.1-0.9-0.1-1.4-0.1c-0.7,0-1.4,0.2-2,0.5c-0.6,0.3-1.2,0.7-1.6,1.2
			c-0.5,0.5-0.8,1.1-1.1,1.8c-0.3,0.7-0.4,1.4-0.4,2.1v0c0,0.8,0.1,1.6,0.4,2.3c0.3,0.7,0.6,1.3,1.1,1.8c0.5,0.5,1,0.9,1.7,1.2
			c0.7,0.3,1.4,0.4,2.2,0.4c0.8,0,1.5-0.1,2.1-0.3c0.7-0.2,1.2-0.5,1.7-0.9v-3h-4v-2.4h6.7v6.6c-0.4,0.3-0.8,0.6-1.3,0.9
			c-0.5,0.3-1,0.6-1.5,0.8c-0.5,0.2-1.1,0.4-1.8,0.5C172.5,195.8,171.8,195.8,171.1,195.8z"/>
		<path class="st0" d="M187.2,179.8h2.8v6.6h7.5v-6.6h2.8v15.8h-2.8v-6.7H190v6.7h-2.8V179.8z"/>
		<path class="st0" d="M210.2,179.8h7.1c1.8,0,3.2,0.5,4.1,1.4c0.7,0.7,1.1,1.6,1.1,2.6v0c0,0.5-0.1,0.9-0.2,1.3
			c-0.1,0.4-0.3,0.7-0.5,1c-0.2,0.3-0.4,0.5-0.7,0.7c-0.3,0.2-0.6,0.4-0.8,0.5c0.5,0.2,0.9,0.4,1.3,0.6c0.4,0.2,0.7,0.5,1,0.8
			c0.3,0.3,0.5,0.7,0.6,1.1c0.2,0.4,0.2,0.9,0.2,1.4v0c0,0.7-0.1,1.3-0.4,1.9s-0.7,1-1.2,1.4c-0.5,0.4-1.1,0.6-1.8,0.8
			c-0.7,0.2-1.5,0.3-2.4,0.3h-7.3V179.8z M219.7,184.2c0-0.6-0.2-1.1-0.7-1.5c-0.5-0.4-1.2-0.5-2.1-0.5h-4v4.2h3.8
			c0.9,0,1.6-0.2,2.2-0.5C219.4,185.5,219.7,185,219.7,184.2L219.7,184.2z M220.6,190.9c0-0.7-0.3-1.2-0.8-1.6
			c-0.5-0.4-1.3-0.6-2.4-0.6h-4.4v4.3h4.6c0.9,0,1.7-0.2,2.2-0.5C220.3,192.2,220.6,191.7,220.6,190.9L220.6,190.9z"/>
		<path class="st0" d="M239.8,195.8c-1.2,0-2.3-0.2-3.3-0.6c-1-0.4-1.9-1-2.6-1.7c-0.7-0.7-1.3-1.6-1.7-2.6c-0.4-1-0.6-2-0.6-3.1v0
			c0-1.1,0.2-2.2,0.6-3.1c0.4-1,1-1.8,1.7-2.6c0.7-0.7,1.6-1.3,2.6-1.8c1-0.4,2.1-0.7,3.3-0.7c1.2,0,2.3,0.2,3.3,0.6
			c1,0.4,1.9,1,2.6,1.7c0.7,0.7,1.3,1.6,1.7,2.6c0.4,1,0.6,2,0.6,3.1v0c0,1.1-0.2,2.2-0.6,3.1c-0.4,1-1,1.8-1.7,2.6
			c-0.7,0.7-1.6,1.3-2.6,1.8C242.2,195.6,241.1,195.8,239.8,195.8z M239.9,193.3c0.8,0,1.5-0.1,2.2-0.4c0.7-0.3,1.2-0.7,1.7-1.2
			c0.5-0.5,0.8-1.1,1.1-1.8c0.3-0.7,0.4-1.4,0.4-2.2v0c0-0.8-0.1-1.5-0.4-2.2c-0.3-0.7-0.6-1.3-1.1-1.8c-0.5-0.5-1-0.9-1.7-1.2
			c-0.7-0.3-1.4-0.5-2.2-0.5s-1.5,0.1-2.2,0.4c-0.7,0.3-1.2,0.7-1.7,1.2c-0.5,0.5-0.8,1.1-1.1,1.8c-0.3,0.7-0.4,1.4-0.4,2.2v0
			c0,0.8,0.1,1.5,0.4,2.2c0.3,0.7,0.6,1.3,1.1,1.8c0.5,0.5,1,0.9,1.7,1.2C238.4,193.1,239.1,193.3,239.9,193.3z"/>
		<path class="st0" d="M263.8,195.8c-1,0-1.9-0.1-2.8-0.4c-0.8-0.3-1.5-0.7-2.1-1.3c-0.6-0.6-1-1.3-1.4-2.2c-0.3-0.9-0.5-1.9-0.5-3
			v-9.1h2.8v9c0,1.5,0.4,2.6,1.1,3.3c0.7,0.8,1.7,1.1,2.9,1.1c1.2,0,2.2-0.4,2.9-1.1c0.7-0.7,1.1-1.8,1.1-3.3v-9.1h2.8v8.9
			c0,1.2-0.2,2.2-0.5,3.1c-0.3,0.9-0.8,1.6-1.4,2.2c-0.6,0.6-1.3,1-2.1,1.3C265.8,195.7,264.9,195.8,263.8,195.8z"/>
		<path class="st0" d="M280.3,179.8h7c1,0,1.9,0.1,2.6,0.4c0.8,0.3,1.4,0.7,1.9,1.2c0.4,0.4,0.7,0.9,1,1.5c0.2,0.6,0.3,1.2,0.3,1.9
			v0c0,1.3-0.4,2.3-1,3.1c-0.7,0.8-1.6,1.3-2.7,1.7l4.3,6h-3.3l-3.9-5.5H283v5.5h-2.8V179.8z M287.1,187.6c1,0,1.8-0.2,2.4-0.7
			c0.6-0.5,0.9-1.1,0.9-1.9v0c0-0.9-0.3-1.5-0.9-2c-0.6-0.4-1.4-0.7-2.4-0.7h-4v5.3H287.1z"/>
		<path class="st0" d="M302.4,179.8h2.8v6.6h7.5v-6.6h2.8v15.8h-2.8v-6.7h-7.5v6.7h-2.8V179.8z"/>
		<path class="st0" d="M333,195.8c-1.2,0-2.3-0.2-3.3-0.6c-1-0.4-1.9-1-2.6-1.7c-0.7-0.7-1.3-1.6-1.7-2.6c-0.4-1-0.6-2-0.6-3.1v0
			c0-1.1,0.2-2.2,0.6-3.1c0.4-1,1-1.8,1.7-2.6s1.6-1.3,2.6-1.8c1-0.4,2.1-0.7,3.3-0.7s2.3,0.2,3.3,0.6c1,0.4,1.9,1,2.6,1.7
			c0.7,0.7,1.3,1.6,1.7,2.6c0.4,1,0.6,2,0.6,3.1v0c0,1.1-0.2,2.2-0.6,3.1c-0.4,1-1,1.8-1.7,2.6c-0.7,0.7-1.6,1.3-2.6,1.8
			C335.3,195.6,334.2,195.8,333,195.8z M333,193.3c0.8,0,1.5-0.1,2.2-0.4c0.7-0.3,1.2-0.7,1.7-1.2c0.5-0.5,0.8-1.1,1.1-1.8
			c0.3-0.7,0.4-1.4,0.4-2.2v0c0-0.8-0.1-1.5-0.4-2.2c-0.3-0.7-0.6-1.3-1.1-1.8c-0.5-0.5-1-0.9-1.7-1.2c-0.7-0.3-1.4-0.5-2.2-0.5
			s-1.5,0.1-2.2,0.4c-0.7,0.3-1.2,0.7-1.7,1.2c-0.5,0.5-0.8,1.1-1.1,1.8c-0.3,0.7-0.4,1.4-0.4,2.2v0c0,0.8,0.1,1.5,0.4,2.2
			c0.3,0.7,0.6,1.3,1.1,1.8c0.5,0.5,1,0.9,1.7,1.2C331.5,193.1,332.2,193.3,333,193.3z"/>
		<path class="st0" d="M358,195.8c-1.2,0-2.3-0.2-3.3-0.6c-1-0.4-1.9-1-2.6-1.7c-0.7-0.7-1.3-1.6-1.7-2.6c-0.4-1-0.6-2-0.6-3.1v0
			c0-1.1,0.2-2.2,0.6-3.1c0.4-1,1-1.8,1.7-2.6c0.7-0.7,1.6-1.3,2.6-1.8c1-0.4,2.1-0.7,3.3-0.7s2.3,0.2,3.3,0.6c1,0.4,1.9,1,2.6,1.7
			c0.7,0.7,1.3,1.6,1.7,2.6c0.4,1,0.6,2,0.6,3.1v0c0,1.1-0.2,2.2-0.6,3.1c-0.4,1-1,1.8-1.7,2.6s-1.6,1.3-2.6,1.8
			C360.3,195.6,359.2,195.8,358,195.8z M358,193.3c0.8,0,1.5-0.1,2.2-0.4c0.7-0.3,1.2-0.7,1.7-1.2c0.5-0.5,0.8-1.1,1.1-1.8
			c0.3-0.7,0.4-1.4,0.4-2.2v0c0-0.8-0.1-1.5-0.4-2.2c-0.3-0.7-0.6-1.3-1.1-1.8c-0.5-0.5-1-0.9-1.7-1.2c-0.7-0.3-1.4-0.5-2.2-0.5
			c-0.8,0-1.5,0.1-2.2,0.4c-0.7,0.3-1.2,0.7-1.7,1.2c-0.5,0.5-0.8,1.1-1.1,1.8c-0.3,0.7-0.4,1.4-0.4,2.2v0c0,0.8,0.1,1.5,0.4,2.2
			c0.3,0.7,0.6,1.3,1.1,1.8c0.5,0.5,1,0.9,1.7,1.2C356.5,193.1,357.2,193.3,358,193.3z"/>
		<path class="st0" d="M375.5,179.8h5.9c1.2,0,2.4,0.2,3.4,0.6c1,0.4,1.9,1,2.7,1.7c0.7,0.7,1.3,1.5,1.7,2.5c0.4,1,0.6,2,0.6,3.1v0
			c0,1.1-0.2,2.1-0.6,3.1c-0.4,1-1,1.8-1.7,2.5c-0.7,0.7-1.6,1.3-2.7,1.7c-1,0.4-2.2,0.6-3.4,0.6h-5.9V179.8z M378.2,182.3V193h3.1
			c0.8,0,1.6-0.1,2.3-0.4s1.3-0.6,1.7-1.1c0.5-0.5,0.8-1,1.1-1.7c0.3-0.7,0.4-1.4,0.4-2.1v0c0-0.8-0.1-1.5-0.4-2.1
			c-0.3-0.7-0.6-1.2-1.1-1.7c-0.5-0.5-1-0.8-1.7-1.1s-1.4-0.4-2.3-0.4H378.2z"/>
		<path class="st0" d="M415.5,182.3h-5v-2.6h12.8v2.6h-5v13.2h-2.8V182.3z"/>
		<path class="st0" d="M437.6,179.7h2.6l6.9,15.9h-2.9l-1.6-3.8h-7.5l-1.6,3.8h-2.8L437.6,179.7z M441.6,189.3l-2.7-6.3l-2.7,6.3
			H441.6z"/>
		<path class="st0" d="M455.9,179.8h2.8v15.8h-2.8V179.8z"/>
		<path class="st0" d="M468.7,179.8h2.8V193h8.3v2.5h-11.1V179.8z"/>
		<path class="st0" d="M495.2,195.8c-1.2,0-2.3-0.2-3.3-0.6c-1-0.4-1.9-1-2.6-1.7c-0.7-0.7-1.3-1.6-1.7-2.6c-0.4-1-0.6-2-0.6-3.1v0
			c0-1.1,0.2-2.2,0.6-3.1c0.4-1,1-1.8,1.7-2.6s1.6-1.3,2.6-1.8c1-0.4,2.1-0.7,3.3-0.7c1.2,0,2.3,0.2,3.3,0.6c1,0.4,1.9,1,2.6,1.7
			c0.7,0.7,1.3,1.6,1.7,2.6c0.4,1,0.6,2,0.6,3.1v0c0,1.1-0.2,2.2-0.6,3.1c-0.4,1-1,1.8-1.7,2.6c-0.7,0.7-1.6,1.3-2.6,1.8
			C497.5,195.6,496.4,195.8,495.2,195.8z M495.2,193.3c0.8,0,1.5-0.1,2.2-0.4c0.7-0.3,1.2-0.7,1.7-1.2c0.5-0.5,0.8-1.1,1.1-1.8
			c0.3-0.7,0.4-1.4,0.4-2.2v0c0-0.8-0.1-1.5-0.4-2.2c-0.3-0.7-0.6-1.3-1.1-1.8c-0.5-0.5-1-0.9-1.7-1.2c-0.7-0.3-1.4-0.5-2.2-0.5
			c-0.8,0-1.5,0.1-2.2,0.4c-0.7,0.3-1.2,0.7-1.7,1.2c-0.5,0.5-0.8,1.1-1.1,1.8c-0.3,0.7-0.4,1.4-0.4,2.2v0c0,0.8,0.1,1.5,0.4,2.2
			c0.3,0.7,0.6,1.3,1.1,1.8c0.5,0.5,1,0.9,1.7,1.2C493.7,193.1,494.4,193.3,495.2,193.3z"/>
		<path class="st0" d="M512.7,179.8h7c1,0,1.9,0.1,2.6,0.4c0.8,0.3,1.4,0.7,1.9,1.2c0.4,0.4,0.7,0.9,1,1.5c0.2,0.6,0.3,1.2,0.3,1.9
			v0c0,1.3-0.4,2.3-1,3.1c-0.7,0.8-1.6,1.3-2.7,1.7l4.3,6h-3.3l-3.9-5.5h-3.5v5.5h-2.8V179.8z M519.5,187.6c1,0,1.8-0.2,2.4-0.7
			c0.6-0.5,0.9-1.1,0.9-1.9v0c0-0.9-0.3-1.5-0.9-2c-0.6-0.4-1.4-0.7-2.4-0.7h-4v5.3H519.5z"/>
	</g>
</g>
</svg>
